<?xml version="1.0"?>
<svg width="640" height="480.00000000000006" xmlns="http://www.w3.org/2000/svg" xmlns:svg="http://www.w3.org/2000/svg">
 <!-- Created with SVG-edit - https://github.com/SVG-Edit/svgedit-->

 <g class="layer">
  <title>Layer 1</title>
  <rect fill="#000000" height="28.735634" id="svg_48" opacity="0.75" stroke="#000000" stroke-dasharray="null" stroke-linecap="null" stroke-linejoin="null" stroke-width="0" width="22.988506" x="135.517258" y="391.149416"/>
  <text fill="#000000" font-family="Sans-serif" font-size="24" font-weight="bold" id="svg_7" stroke="#000000" stroke-width="0" text-anchor="middle" transform="rotate(0.0518058 463.004 148.153) matrix(3.927 0 0 2.67157 -1134.27 -376.246)" x="406.754317" xml:space="preserve" y="204.653985">J   B</text>
  <text fill="#000000" font-family="Sans-serif" font-size="24" id="svg_8" stroke="#000000" stroke-dasharray="null" stroke-linecap="null" stroke-linejoin="null" stroke-width="0" text-anchor="middle" transform="matrix(1.2002 0 0 1.04444 -682.031 88.9373)" x="950.302598" xml:space="preserve" y="202.424096">Desarrollo WEB y Apps</text>
  <text fill="#000000" font-family="Sans-serif" font-size="24" id="svg_12" stroke="#000000" stroke-dasharray="null" stroke-linecap="null" stroke-linejoin="null" stroke-width="0" text-anchor="middle" transform="matrix(1.2002 0 0 1.04444 -682.031 88.9373)" x="914.886925" xml:space="preserve" y="228.455635">Marketing Digital</text>
  <text fill="#000000" font-family="Sans-serif" font-size="24" id="svg_13" stroke="#000000" stroke-dasharray="null" stroke-linecap="null" stroke-linejoin="null" stroke-width="0" text-anchor="middle" transform="matrix(1.2002 0 0 1.04444 -682.031 88.9373)" x="883.223506" xml:space="preserve" y="178.682165">Telemática</text>
  <line fill="none" id="svg_14" stroke="#000000" stroke-dasharray="null" stroke-linecap="null" stroke-linejoin="null" x1="308.5" x2="621.5" y1="182.787356" y2="181.787356"/>
  <text fill="#000000" font-family="Sans-serif" font-size="24" id="svg_15" stroke="#000000" stroke-dasharray="null" stroke-linecap="null" stroke-linejoin="null" stroke-width="0" text-anchor="middle" transform="matrix(0.85841 0 0 1.0067 135.27 12.8117)" x="385.050215" xml:space="preserve" y="197.077759">Informática y Telecomunicaciones</text>
  <path d="m467.746806,124.145676c-2.249762,-0.898796 -4.959445,-0.127065 -6.056006,1.732191c-1.092029,1.859256 -0.149531,4.094101 2.100231,4.994766c7.05741,2.832796 11.928496,8.791759 11.923965,15.698102c-0.022656,9.63076 -9.470297,17.422819 -21.145043,17.439636c-11.677012,-0.018686 -21.124653,-7.810744 -21.147309,-17.439636c-0.004531,-6.91008 4.86882,-12.874648 11.933027,-15.701839c2.254293,-0.900665 3.189995,-3.135509 2.100231,-4.994766c-1.092029,-1.855519 -3.797181,-2.632856 -6.051474,-1.732191c-10.086546,4.026831 -17.042003,12.562592 -17.046534,22.428796c0.004531,13.760364 13.523493,24.912164 30.212059,24.915901c16.686301,-0.003737 30.207528,-11.155537 30.209794,-24.915901c-0.004531,-9.862466 -6.950926,-18.392622 -17.032941,-22.425059zm-13.176853,18.375804c2.501246,0 4.528977,-1.670528 4.528977,-3.737198l0,-17.441505c0,-2.064802 -2.027731,-3.73533 -4.528977,-3.73533c-2.505777,0 -4.531243,1.672396 -4.531243,3.73533l0,17.439636c0,2.066671 2.025465,3.739067 4.531243,3.739067z" fill="#7f7f7f" id="svg_25" stroke="#000000" stroke-dasharray="null" stroke-linecap="null" stroke-linejoin="null" stroke-width="0" transform="rotate(-1.67187 454.569 144.547)"/>
  <path d="m-61.992631,53.429751c-0.004965,-0.002405 -0.010945,-0.00034 -0.013365,0.004635c-0.00241,0.004975 -0.00033,0.010955 0.004635,0.013365c0.015575,0.00758 0.026325,0.023525 0.026315,0.042005c-0.00005,0.02577 -0.0209,0.04662 -0.046665,0.046665c-0.02577,-0.00005 -0.04662,-0.0209 -0.04667,-0.046665c-0.00001,-0.01849 0.010745,-0.03445 0.026335,-0.042015c0.004975,-0.00241 0.00704,-0.00839 0.004635,-0.013365c-0.00241,-0.004965 -0.00838,-0.007045 -0.013355,-0.004635c-0.02226,0.010775 -0.03761,0.033615 -0.03762,0.060015c0.00001,0.03682 0.029845,0.06666 0.066675,0.06667c0.036825,-0.00001 0.066665,-0.02985 0.06667,-0.06667c-0.00001,-0.02639 -0.01534,-0.049215 -0.03759,-0.060005zm-0.02908,0.04917c0.00552,0 0.009995,-0.00447 0.009995,-0.01l0,-0.04667c0,-0.005525 -0.004475,-0.009995 -0.009995,-0.009995c-0.00553,0 -0.01,0.004475 -0.01,0.009995l0,0.046665c0,0.00553 0.00447,0.010005 0.01,0.010005z" fill="#ffffff" id="svg_31" opacity="0.5" stroke="#000000" stroke-dasharray="null" stroke-linecap="null" stroke-linejoin="null" stroke-width="2"/>
  <path d="m331.203923,-197.721983c-0.004965,-0.002405 -0.010945,-0.00034 -0.013365,0.004635c-0.00241,0.004975 -0.00033,0.010955 0.004635,0.013365c0.015575,0.00758 0.026325,0.023525 0.026315,0.042005c-0.00005,0.02577 -0.0209,0.04662 -0.046665,0.046665c-0.02577,-0.00005 -0.04662,-0.0209 -0.04667,-0.046665c-0.00001,-0.01849 0.010745,-0.03445 0.026335,-0.042015c0.004975,-0.00241 0.00704,-0.00839 0.004635,-0.013365c-0.00241,-0.004965 -0.00838,-0.007045 -0.013355,-0.004635c-0.02226,0.010775 -0.03761,0.033615 -0.03762,0.060015c0.00001,0.03682 0.029845,0.06666 0.066675,0.06667c0.036825,-0.00001 0.066665,-0.02985 0.06667,-0.06667c-0.00001,-0.02639 -0.01534,-0.049215 -0.03759,-0.060005zm-0.02908,0.04917c0.00552,0 0.009995,-0.00447 0.009995,-0.01l0,-0.04667c0,-0.005525 -0.004475,-0.009995 -0.009995,-0.009995c-0.00553,0 -0.01,0.004475 -0.01,0.009995l0,0.046665c0,0.00553 0.00447,0.010005 0.01,0.010005z" fill="#ffffff" id="svg_33" opacity="0.5" stroke="#000000" stroke-dasharray="null" stroke-linecap="null" stroke-linejoin="null" stroke-width="2"/>
  <path d="m78.703341,296.915135l153.159195,0.056755l-4.970052,7.129396l-143.160412,-0.17026l-5.028737,-7.015892l0.000007,0zm1.052527,-94.837135l151.11261,-0.17026l4.385457,7.313671l-159.942065,0.056755l4.443998,-7.200167zm-14.912969,47.52161l180.821524,-0.17026l-0.233733,7.313678l-180.470846,-0.113504l-0.116945,-7.029914zm180.971208,0.678339c0,48.418259 -40.590386,87.807005 -90.490911,87.807005c-49.878967,0 -90.461788,-39.395865 -90.461788,-87.807005c0,-48.411376 40.590156,-87.800115 90.461788,-87.800115c49.900533,-0.007113 90.490911,39.38874 90.490911,87.800115zm-90.483806,-94.837142c-53.860584,0 -97.690146,42.539957 -97.690146,94.83001c0,52.297178 43.829569,94.837129 97.690146,94.837129c53.88991,0 97.712157,-42.539951 97.712157,-94.837129c0,-52.290052 -43.82224,-94.83001 -97.712157,-94.83001zm27.414596,94.837142c0,51.73894 -14.442511,87.807005 -27.414596,87.807005c-12.957408,0 -27.39969,-36.068065 -27.39969,-87.807005c0,-51.753185 14.435163,-87.800115 27.39969,-87.800115c12.964763,-0.007113 27.414596,36.04693 27.414596,87.800115zm-27.414596,-94.837142c-22.500587,0 -34.642718,48.863298 -34.642718,94.83001c0,45.980746 12.142131,94.837129 34.642718,94.837129c22.500816,0 34.664952,-48.863489 34.664952,-94.837129c-0.007335,-45.966712 -12.164136,-94.83001 -34.664952,-94.83001zm64.204855,94.837142c0,48.418259 -28.812139,87.807005 -64.204855,87.807005c-35.385361,0 -64.182844,-39.395865 -64.182844,-87.807005c0,-48.411376 28.797483,-87.800115 64.182844,-87.800115c35.392716,-0.007113 64.204855,39.38874 64.204855,87.800115zm-64.204855,-94.837142c-39.374542,0 -71.425865,42.539957 -71.425865,94.83001c0,52.297178 32.051323,94.837129 71.425865,94.837129c39.389212,0 71.433423,-42.539951 71.433423,-94.837129c0,-52.290052 -32.044211,-94.83001 -71.433423,-94.83001z" fill="#000000" id="svg_40" opacity="0.75" stroke="#000000" stroke-dasharray="null" stroke-linecap="null" stroke-linejoin="null" stroke-width="8"/>
  <path d="m152.143989,133.02234c12.509231,0.009897 24.45865,2.118034 35.77701,5.641492l-8.956976,15.063773l63.584348,0l-15.898632,-26.78224l-15.888453,-26.762446l-8.366629,14.10373c-15.674707,-5.57221 -32.57082,-8.689877 -50.24049,-8.689877c-81.335445,0 -147.260821,64.105163 -147.260821,143.194921c0,32.829524 11.481214,62.986762 30.586036,87.146204l22.392439,-16.716631c-15.450783,-19.52748 -24.743645,-43.894766 -24.794537,-70.419675c0.111962,-63.946806 53.314361,-115.680276 119.066705,-115.77925zm116.684963,28.65284l-22.392439,16.726529c15.450783,19.517583 24.743645,43.874971 24.784358,70.409778c-0.111962,63.936908 -53.314361,115.670379 -119.066705,115.77925c-11.654247,-0.019795 -22.799574,-1.860703 -33.425804,-4.93878l8.4277,-14.173011l-63.584348,0l15.888453,26.762446l15.898632,26.792138l8.86537,-14.954902c15.033469,5.08724 31.12549,7.927781 47.929998,7.937678c81.345623,-0.019795 147.260821,-64.124958 147.281178,-143.214715c-0.020357,-32.829524 -11.511749,-62.976865 -30.606393,-87.126409z" fill="#3f3f3f" id="svg_47" opacity="0.5" stroke="#000000" stroke-dasharray="null" stroke-linecap="null" stroke-linejoin="null" stroke-width="0"/>
  <rect fill="#7f7f7f" height="1.149425" id="svg_50" opacity="0.75" stroke="#000000" stroke-dasharray="null" stroke-linecap="null" stroke-linejoin="null" stroke-width="0" width="0" x="422.873587" y="223.333322"/>
  <rect fill="#000000" height="25.287359" id="svg_54" opacity="0.75" stroke="#000000" stroke-dasharray="null" stroke-linecap="null" stroke-linejoin="null" stroke-width="0" width="108.045977" x="94.137957" y="418.735632"/>
  <rect fill="#000000" height="0" id="svg_56" opacity="0.75" stroke="#000000" stroke-dasharray="null" stroke-linecap="null" stroke-linejoin="null" stroke-width="0" width="2.298851" x="188.390823" y="431.379304"/>
  <path d="m360.653649,124.376339l-16.404673,22.30455l16.404673,22.30455l-9.375614,12.751122l-25.780287,-35.055672l25.780287,-35.059277" fill="#7f7f7f" id="svg_59" opacity="0.75" stroke="#000000" stroke-dasharray="null" stroke-linecap="null" stroke-linejoin="null" stroke-width="0"/>
  <path d="m596.198642,122.294943l-16.404673,22.30455l16.404673,22.30455l-9.375614,12.751122l-25.780287,-35.055672l25.780287,-35.059277" fill="#7f7f7f" id="svg_61" opacity="0.75" stroke="#000000" stroke-dasharray="null" stroke-linecap="null" stroke-linejoin="null" stroke-width="0" transform="rotate(179.444 578.621 144.598)"/>
 </g>
</svg>